<?xml version="1.0" standalone="no"?>
<!DOCTYPE svg PUBLIC "-//W3C//DTD SVG 20010904//EN"
 "http://www.w3.org/TR/2001/REC-SVG-20010904/DTD/svg10.dtd">
<svg version="1.0" xmlns="http://www.w3.org/2000/svg"
 width="416.000000pt" height="224.000000pt" viewBox="0 0 416.000000 224.000000"
 preserveAspectRatio="xMidYMid meet">

<g transform="translate(0.000000,224.000000) scale(0.100000,-0.100000)"
fill="#000000" stroke="none">
<path d="M1807 1672 c-31 -33 -37 -94 -12 -129 36 -51 131 -46 169 8 66 95
-76 205 -157 121z"/>
<path d="M600 1677 c0 -3 -285 -740 -307 -794 -4 -10 17 -13 86 -13 105 0 104
-1 141 113 l22 67 155 -2 155 -3 28 -79 c15 -43 34 -82 41 -87 17 -11 179 -12
179 -1 0 4 -69 185 -154 402 l-153 395 -96 3 c-54 1 -97 1 -97 -1z m155 -336
l54 -161 -110 0 c-60 0 -109 3 -109 8 0 11 105 320 108 317 1 -1 27 -75 57
-164z"/>
<path d="M2399 1629 c-24 -14 -1 -36 44 -41 59 -7 144 -48 186 -89 85 -84 112
-235 62 -346 -27 -61 -93 -126 -159 -156 -72 -33 -180 -31 -254 6 -141 69
-209 228 -159 374 26 77 27 96 4 91 -23 -4 -52 -67 -63 -132 -25 -157 58 -309
205 -377 53 -25 77 -30 139 -31 89 0 133 13 204 60 113 74 170 205 151 346
-14 106 -93 216 -189 263 -50 24 -152 44 -171 32z"/>
<path d="M2380 1523 c-40 -6 -100 -35 -100 -49 0 -22 14 -23 72 -7 67 19 109
13 166 -25 50 -31 92 -107 92 -161 0 -20 -9 -54 -19 -76 -37 -80 -96 -119
-181 -119 -97 -1 -168 58 -194 161 -8 33 -18 49 -31 52 -16 3 -17 -2 -12 -53
7 -66 49 -134 107 -172 46 -31 142 -42 206 -25 53 14 117 70 144 126 26 54 29
143 7 196 -41 99 -155 166 -257 152z"/>
<path d="M1414 1431 c-23 -10 -45 -24 -48 -30 -11 -18 -31 -13 -41 12 -9 19
-19 22 -77 25 l-68 3 0 -286 0 -285 85 0 85 0 0 205 0 205 33 20 c17 11 48 20
67 20 74 0 80 -19 80 -254 l0 -196 86 0 85 0 -3 223 -3 222 -28 48 c-48 82
-158 111 -253 68z"/>
<path d="M3063 1430 c-23 -12 -47 -28 -54 -36 -11 -13 -14 -11 -25 15 -13 30
-15 31 -79 31 l-65 0 0 -285 0 -285 85 0 85 0 0 204 0 205 27 21 c20 16 38 20
72 18 41 -3 48 -7 63 -38 15 -30 18 -64 18 -222 l0 -188 86 0 86 0 -4 218 c-3
201 -5 220 -26 259 -35 67 -80 95 -160 100 -54 3 -75 0 -109 -17z"/>
<path d="M1790 1155 l0 -285 85 0 85 0 0 285 0 285 -85 0 -85 0 0 -285z"/>
<path d="M2365 1405 c-22 -8 -41 -15 -41 -15 -1 0 -9 -12 -19 -26 -13 -20 -14
-28 -5 -40 10 -11 18 -9 48 16 43 35 65 37 109 11 39 -25 51 -67 28 -111 -29
-56 -101 -63 -145 -13 -20 23 -23 24 -38 9 -15 -15 -14 -19 15 -47 60 -60 165
-49 208 23 37 63 9 163 -53 186 -51 20 -67 21 -107 7z"/>
</g>
</svg>
